<svg width="1440" height="3631" fill="none" xmlns="http://www.w3.org/2000/svg"><path fill-rule="evenodd" clip-rule="evenodd" d="M1509.84 1422.23c9.79 10.5 24.14 14.55 34.04 24.95 12.2 12.83 29.94 24.77 30.07 42.46.14 17.63-19.5 28.07-29.44 42.63-9.98 14.63-16.17 31.03-29.09 43.14-17.93 16.81-36.51 47.89-59.94 40.35-24.94-8.01-18.75-47.39-32.06-69.93-8.35-14.13-23.34-22.46-31.07-36.94-9.55-17.87-21.35-36.39-18.85-56.47 2.65-21.29 17.5-38.72 32.59-53.98 16.42-16.61 34.86-42.55 57.67-37.32 25.39 5.82 28.34 42.05 46.08 61.11z" fill="#FFECF2"/><path clip-rule="evenodd" d="M1494.74 1420.92c11.32 12.16 27.93 16.84 39.38 28.87 14.12 14.85 34.65 28.67 34.8 49.13.15 20.41-22.57 32.49-34.06 49.34-11.55 16.91-18.72 35.9-33.66 49.91-20.75 19.45-42.25 55.41-69.37 46.69-28.85-9.28-21.69-54.84-37.09-80.92-9.67-16.35-27-25.99-35.95-42.74-11.05-20.68-24.7-42.1-21.81-65.34 3.06-24.64 20.25-44.81 37.7-62.46 19.01-19.23 40.34-49.23 66.74-43.18 29.37 6.73 32.79 48.65 53.32 70.7z" stroke="#FFD0E0" stroke-width="2"/><path fill-rule="evenodd" clip-rule="evenodd" d="M-78.612 248.8c-7.195-11.938-20.03-18.651-27.35-30.512-9.031-14.631-23.505-29.528-20.096-46.358 3.399-16.783 24.146-22.781 36.498-34.631 12.403-11.9 21.57-26.25 36.264-35.177 20.398-12.393 44.264-38.208 65.03-26.363 22.092 12.6 8.341 48.78 16.488 72.859 5.11 15.102 17.682 26.008 22.14 41.314 5.502 18.89 13.011 38.843 6.622 57.429-6.772 19.703-24.37 33.295-41.753 44.779-18.93 12.505-41.632 33.463-62.262 23.936-22.962-10.605-18.528-45.616-31.581-67.276z" fill="#FFECF2"/><path clip-rule="evenodd" d="M-80.327 258.744c-7.86-13.449-22.204-20.817-30.209-34.175-9.874-16.478-25.887-33.138-21.668-52.396 4.207-19.203 27.764-26.496 41.972-40.275 14.266-13.837 24.933-30.395 41.72-40.893 23.304-14.574 50.818-44.523 74.005-31.48 24.666 13.875 8.343 55.414 17.01 82.679 5.437 17.101 19.392 29.255 24.089 46.602 5.796 21.409 13.834 43.986 6.212 65.311-8.08 22.606-28.25 38.486-48.13 51.958-21.648 14.67-47.742 39.058-70.826 28.653-25.692-11.581-19.914-51.584-34.175-75.984z" stroke="#FFD0E0" stroke-width="2"/><path fill-rule="evenodd" clip-rule="evenodd" d="M-79.623 2363.26c-6.76-12.67-19.6-20.26-26.495-32.85-8.504-15.53-22.592-31.62-18.186-48.75 4.393-17.08 26.05-22.13 39.388-33.66 13.393-11.57 23.589-25.84 39.177-34.24 21.642-11.65 47.567-36.92 68.29-23.63 22.046 14.14 5.968 50.61 13.057 75.81 4.447 15.81 16.793 27.7 20.56 43.68 4.647 19.72 11.301 40.64 3.737 59.41-8.02 19.9-26.845 32.94-45.336 43.82-20.138 11.85-44.607 32.19-65.313 21.28-23.047-12.13-16.614-47.9-28.879-70.87z" fill="#FFECF2"/><path clip-rule="evenodd" d="M-87.397 2375.45c-7.823-14.65-22.68-23.44-30.658-38-9.84-17.97-26.141-36.6-21.043-56.41 5.084-19.76 30.144-25.62 45.577-38.95 15.496-13.4 27.294-29.91 45.33-39.62 25.043-13.48 55.04-42.72 79.019-27.34 25.509 16.36 6.905 58.56 15.108 87.72 5.146 18.29 19.431 32.04 23.79 50.53 5.377 22.82 13.077 47.03 4.324 68.75-9.28 23.03-31.062 38.11-52.459 50.7-23.3 13.71-51.613 37.25-75.573 24.63-26.668-14.04-19.224-55.43-33.415-82.01z" stroke="#FFD0E0" stroke-width="2"/><path fill-rule="evenodd" clip-rule="evenodd" d="M1387.9 3452.34c-5.28-13.34-17.18-22.33-22.61-35.62-6.69-16.4-18.87-33.98-12.56-50.5 6.3-16.47 28.39-19.05 42.94-28.99 14.62-9.99 26.36-23.01 42.8-29.59 22.82-9.13 51.44-31.31 70.53-15.76 20.3 16.55.2 50.97 4.4 76.8 2.63 16.21 13.55 29.42 15.49 45.72 2.38 20.12 6.63 41.66-3.01 59.46-10.22 18.87-30.4 29.69-50 38.41-21.35 9.5-47.96 26.94-67.3 13.76-21.53-14.66-11.09-49.47-20.68-73.69z" fill="#FFECF2"/><path clip-rule="evenodd" d="M1378.8 3463.58c-6.12-15.44-19.89-25.85-26.17-41.23-7.74-18.96-21.83-39.31-14.53-58.42 7.29-19.06 32.85-22.04 49.69-33.55 16.91-11.56 30.5-26.62 49.52-34.24 26.41-10.56 59.52-36.22 81.61-18.23 23.49 19.14.24 58.97 5.09 88.87 3.04 18.75 15.68 34.03 17.92 52.9 2.76 23.28 7.68 48.2-3.48 68.79-11.82 21.83-35.17 34.36-57.85 44.45-24.7 10.99-55.49 31.17-77.87 15.92-24.91-16.96-12.84-57.24-23.93-85.26z" stroke="#FFD0E0" stroke-width="2"/></svg>