<svg width="796" height="791" fill="none" xmlns="http://www.w3.org/2000/svg"><path d="M467.19 155.934C232.789 138.179 70.73-21.42 19-99l882 .6V676c-33.075-6.238-98.466-55.786-127.027-79.779-46.137-38.39-91.78-165.221-78.493-242.338C712 258 676.705 212.52 655.334 194.324 621.78 154.015 526.5 157.5 467.19 155.934z" fill="#FCF2F6" fill-opacity=".61"/><path d="M543.48 192.728C317.416 128.273 190.7-60.614 155.6-147l863.92 177.67-155.48 758.632c-31.149-12.752-85.26-74.419-108.423-103.659-37.49-46.871-57.637-166.643-28.239-253.162 33.122-97.481 9.99-142.255-7.293-164.37-24.778-46.226-111.585-56.844-176.605-75.383z" stroke="#FEDDE8" stroke-width="2" stroke-linecap="round" stroke-linejoin="round"/></svg>